<svg width="62" height="60" viewBox="0 0 62 60" fill="none" xmlns="http://www.w3.org/2000/svg"><path fill-rule="evenodd" clip-rule="evenodd" d="M35.3552 31.5917C35.3552 31.78 35.2814 35.7692 32.0845 36.5355V24.4979L35.3552 25.9276V31.5917ZM26.6434 31.5742V25.9276L29.9141 24.4979V36.5399C26.7997 35.8064 26.6456 32.0471 26.6434 31.5742ZM36.8723 24.2023L31.4312 21.8267C31.1556 21.7063 30.843 21.7063 30.5674 21.8267L25.1263 24.2023C24.7291 24.3775 24.473 24.7716 24.473 25.2073V31.5742C24.473 34.1031 25.8382 38.8848 30.9993 38.8848C36.1604 38.8848 37.5255 34.114 37.5255 31.5917V25.2073C37.5255 24.7716 37.2694 24.3775 36.8723 24.2023ZM51.3203 45.6415C49.406 45.6415 47.8477 44.0695 47.8477 42.1362C47.8477 40.2029 49.406 38.6309 51.3203 38.6309C53.2367 38.6309 54.795 40.2029 54.795 42.1362C54.795 44.0695 53.2367 45.6415 51.3203 45.6415ZM31.1035 41.0415C25.1393 41.0415 20.2886 36.148 20.2886 30.1314C20.2886 24.1125 25.1393 19.2191 31.1035 19.2191C37.0676 19.2191 41.9205 24.1125 41.9205 30.1314C41.9205 36.148 37.0676 41.0415 31.1035 41.0415ZM34.474 54.3052C34.474 56.2363 32.9157 57.8105 30.9993 57.8105C29.0829 57.8105 27.5267 56.2363 27.5267 54.3052C27.5267 52.3719 29.0829 50.7999 30.9993 50.7999C32.9157 50.7999 34.474 52.3719 34.474 54.3052ZM27.5267 5.69479C27.5267 3.76368 29.0829 2.18946 30.9993 2.18946C32.9157 2.18946 34.474 3.76368 34.474 5.69479C34.474 7.62808 32.9157 9.20012 30.9993 9.20012C29.0829 9.20012 27.5267 7.62808 27.5267 5.69479ZM10.5394 44.3147C8.62515 44.3147 7.06684 42.7427 7.06684 40.8094C7.06684 38.8783 8.62515 37.304 10.5394 37.304C12.4558 37.304 14.0141 38.8783 14.0141 40.8094C14.0141 42.7427 12.4558 44.3147 10.5394 44.3147ZM11.4249 21.0429C9.50848 21.0429 7.95017 19.4709 7.95017 17.5376C7.95017 15.6043 9.50848 14.0323 11.4249 14.0323C13.3391 14.0323 14.8996 15.6043 14.8996 17.5376C14.8996 19.4709 13.3391 21.0429 11.4249 21.0429ZM51.4592 13.4739C53.3756 13.4739 54.9339 15.0438 54.9339 16.9771C54.9339 18.9104 53.3756 20.4824 51.4592 20.4824C49.5428 20.4824 47.9845 18.9104 47.9845 16.9771C47.9845 15.0438 49.5428 13.4739 51.4592 13.4739ZM51.3203 36.4414C49.762 36.4414 48.3469 37.0851 47.3247 38.1207L43.0513 35.2635C43.7197 33.6871 44.0909 31.953 44.0909 30.1314C44.0909 27.747 43.4484 25.5182 42.3415 23.5893L47.2313 20.7101C48.2666 21.9034 49.7707 22.6719 51.4592 22.6719C54.5715 22.6719 57.1043 20.1168 57.1043 16.9771C57.1043 13.8374 54.5715 11.2845 51.4592 11.2845C48.3469 11.2845 45.8141 13.8374 45.8141 16.9771C45.8141 17.6252 45.9465 18.236 46.144 18.8184L41.1044 21.783C38.9189 19.1206 35.7046 17.3537 32.0845 17.08V11.2779C34.678 10.7656 36.6444 8.46008 36.6444 5.69479C36.6444 2.5551 34.1116 0 30.9993 0C27.8892 0 25.3564 2.5551 25.3564 5.69479C25.3564 8.46008 27.3205 10.7656 29.9141 11.2779V17.0887C26.1269 17.4391 22.8149 19.438 20.6684 22.3653L16.6381 19.7139C16.9137 19.0417 17.07 18.3083 17.07 17.5376C17.07 14.3979 14.5372 11.8428 11.4249 11.8428C8.31262 11.8428 5.77982 14.3979 5.77982 17.5376C5.77982 20.6773 8.31262 23.2324 11.4249 23.2324C12.9919 23.2324 14.4113 22.5821 15.4335 21.5377L19.5268 24.2286C18.6326 26.0042 18.1183 28.0054 18.1183 30.1314C18.1183 31.7494 18.4221 33.293 18.956 34.7249L14.7955 37.1114C13.7602 35.9006 12.2475 35.1146 10.5394 35.1146C7.42928 35.1146 4.89648 37.6697 4.89648 40.8094C4.89648 43.9512 7.42928 46.5042 10.5394 46.5042C13.6517 46.5042 16.1845 43.9512 16.1845 40.8094C16.1845 40.1788 16.0564 39.5833 15.8698 39.0162L19.8914 36.7063C21.9554 40.2751 25.6342 42.7755 29.9141 43.1696V48.7221C27.3205 49.2344 25.3564 51.5399 25.3564 54.3052C25.3564 57.4449 27.8892 60 30.9993 60C34.1116 60 36.6444 57.4449 36.6444 54.3052C36.6444 51.5399 34.678 49.2344 32.0845 48.7221V43.1806C36.2537 42.8631 39.8739 40.562 42.0182 37.2033L46.1158 39.9402C45.8336 40.6167 45.6774 41.3567 45.6774 42.1362C45.6774 45.2759 48.2102 47.831 51.3203 47.831C54.4326 47.831 56.9654 45.2759 56.9654 42.1362C56.9654 38.9965 54.4326 36.4414 51.3203 36.4414Z" fill="#AAB7B8"></path></svg>